<svg width="280" height="77" viewBox="0 0 280 77" fill="none" xmlns="http://www.w3.org/2000/svg">
    <g clip-path="url(#clip0_5_49)">
        <path d="M18.88 60.96C16.6187 60.96 14.4213 60.6187 12.288 59.936C10.1973 59.2533 8.27733 58.144 6.528 56.608C4.77867 55.0293 3.30667 52.896 2.112 50.208L7.424 47.2C8.91733 49.888 10.56 51.8293 12.352 53.024C14.144 54.2187 16.384 54.816 19.072 54.816C21.6747 54.816 23.6373 54.24 24.96 53.088C26.3253 51.936 27.008 50.3573 27.008 48.352C27.008 47.1573 26.7093 46.112 26.112 45.216C25.5573 44.32 24.5547 43.488 23.104 42.72C21.6533 41.952 19.6053 41.248 16.96 40.608C13.632 39.7547 11.0293 38.7093 9.152 37.472C7.31733 36.192 6.03733 34.7413 5.312 33.12C4.58667 31.456 4.224 29.664 4.224 27.744C4.224 25.3547 4.77867 23.2853 5.888 21.536C6.99733 19.744 8.59733 18.3573 10.688 17.376C12.7787 16.352 15.2533 15.84 18.112 15.84C21.5253 15.84 24.3413 16.5013 26.56 17.824C28.7787 19.104 30.656 20.8747 32.192 23.136L26.816 26.592C25.4933 24.9707 24.1067 23.8187 22.656 23.136C21.248 22.4107 19.7333 22.048 18.112 22.048C15.6373 22.048 13.7387 22.5387 12.416 23.52C11.136 24.5013 10.496 25.9093 10.496 27.744C10.496 29.3227 11.0933 30.688 12.288 31.84C13.5253 32.992 15.9147 33.9947 19.456 34.848C23.04 35.744 25.8347 36.8107 27.84 38.048C29.888 39.2427 31.3173 40.6933 32.128 42.4C32.9813 44.064 33.408 46.0693 33.408 48.416C33.408 50.7627 32.8107 52.8747 31.616 54.752C30.4213 56.6293 28.736 58.144 26.56 59.296C24.384 60.4053 21.824 60.96 18.88 60.96Z" fill="black"/>
        <path d="M46.624 60H40.224V28.768H46.624V60ZM39.264 19.168C39.264 17.9307 39.6267 16.928 40.352 16.16C41.12 15.3493 42.144 14.944 43.424 14.944C44.6613 14.944 45.664 15.3493 46.432 16.16C47.2 16.928 47.584 17.9307 47.584 19.168C47.584 20.3627 47.2 21.3653 46.432 22.176C45.664 22.944 44.6613 23.328 43.424 23.328C42.144 23.328 41.12 22.944 40.352 22.176C39.6267 21.3653 39.264 20.3627 39.264 19.168Z" fill="black"/>
        <path d="M55.096 60V28.768H59.96L61.304 34.272L59.704 34.464C60.856 33.0987 62.072 31.9467 63.352 31.008C64.632 30.0693 65.9973 29.3653 67.448 28.896C68.8987 28.384 70.4133 28.128 71.992 28.128C74.2107 28.128 75.96 28.512 77.24 29.28C78.52 30.0053 79.4587 31.008 80.056 32.288C80.6533 33.5253 81.0373 34.9333 81.208 36.512C81.3787 38.0907 81.464 39.712 81.464 41.376V60H75.064V40.032C75.064 37.8133 74.552 36.32 73.528 35.552C72.5467 34.784 71.3733 34.4 70.008 34.4C68.0453 34.4 66.168 35.0187 64.376 36.256C62.584 37.4507 61.2827 38.9013 60.472 40.608V37.024H61.496V60H55.096ZM95.032 60V40.032C95.032 37.8133 94.52 36.32 93.496 35.552C92.5147 34.784 91.3413 34.4 89.976 34.4C88.0133 34.4 86.136 35.0187 84.344 36.256C82.552 37.4507 81.2507 38.9013 80.44 40.608L79.672 34.464C80.824 33.0987 82.04 31.9467 83.32 31.008C84.6 30.0693 85.9653 29.3653 87.416 28.896C88.8667 28.384 90.3813 28.128 91.96 28.128C94.1787 28.128 95.928 28.512 97.208 29.28C98.488 30.0053 99.4267 31.008 100.024 32.288C100.621 33.5253 101.005 34.9333 101.176 36.512C101.347 38.0907 101.432 39.712 101.432 41.376V60H95.032Z" fill="black"/>
        <path d="M125.904 60.64C123.088 60.64 120.635 59.9787 118.544 58.656C116.453 57.2907 114.811 55.392 113.616 52.96C112.464 50.528 111.888 47.6907 111.888 44.448C111.888 41.1627 112.464 38.304 113.616 35.872C114.811 33.44 116.453 31.5413 118.544 30.176C120.635 28.8107 123.088 28.128 125.904 28.128C128.805 28.128 131.323 28.8107 133.456 30.176C135.632 31.5413 137.317 33.44 138.512 35.872C139.707 38.304 140.304 41.1627 140.304 44.448C140.304 47.6907 139.707 50.528 138.512 52.96C137.317 55.392 135.632 57.2907 133.456 58.656C131.323 59.9787 128.805 60.64 125.904 60.64ZM110.096 72.16V28.768H114.96L116.496 35.04H115.856V52.832H116.496V72.16H110.096ZM124.944 55.136C127.589 55.136 129.723 54.1547 131.344 52.192C132.965 50.2293 133.776 47.648 133.776 44.448C133.776 41.2053 132.965 38.6027 131.344 36.64C129.723 34.6347 127.589 33.632 124.944 33.632C122.341 33.632 120.229 34.6133 118.608 36.576C116.987 38.5387 116.176 41.1413 116.176 44.384C116.176 47.6267 116.987 50.2293 118.608 52.192C120.229 54.1547 122.341 55.136 124.944 55.136Z" fill="black"/>
        <path d="M152.792 60.32C151.683 60.32 150.701 60.064 149.848 59.552C148.995 58.9973 148.312 58.208 147.8 57.184C147.331 56.16 147.096 54.9013 147.096 53.408V16.416H153.368V51.168C153.368 52.4907 153.688 53.3867 154.328 53.856C155.011 54.3253 155.779 54.56 156.632 54.56V59.68C156.077 59.8933 155.48 60.0427 154.84 60.128C154.2 60.256 153.517 60.32 152.792 60.32Z" fill="black"/>
        <path d="M169.624 60H163.224V28.768H169.624V60ZM162.264 19.168C162.264 17.9307 162.627 16.928 163.352 16.16C164.12 15.3493 165.144 14.944 166.424 14.944C167.661 14.944 168.664 15.3493 169.432 16.16C170.2 16.928 170.584 17.9307 170.584 19.168C170.584 20.3627 170.2 21.3653 169.432 22.176C168.664 22.944 167.661 23.328 166.424 23.328C165.144 23.328 164.12 22.944 163.352 22.176C162.627 21.3653 162.264 20.3627 162.264 19.168Z" fill="black"/>
        <path d="M191.856 60.64C188.656 60.64 185.883 59.9573 183.536 58.592C181.189 57.184 179.376 55.264 178.096 52.832C176.816 50.4 176.176 47.584 176.176 44.384C176.176 41.184 176.816 38.368 178.096 35.936C179.376 33.504 181.189 31.6053 183.536 30.24C185.883 28.832 188.656 28.128 191.856 28.128C194.885 28.128 197.637 28.96 200.112 30.624C202.587 32.2453 204.379 34.4213 205.488 37.152L199.408 39.712C198.725 37.92 197.701 36.576 196.336 35.68C194.971 34.7413 193.413 34.272 191.664 34.272C189.104 34.272 186.971 35.168 185.264 36.96C183.557 38.7093 182.704 41.184 182.704 44.384C182.704 47.584 183.557 50.08 185.264 51.872C186.971 53.6213 189.104 54.496 191.664 54.496C193.413 54.496 194.971 54.048 196.336 53.152C197.701 52.2133 198.725 50.848 199.408 49.056L205.488 51.616C204.336 54.3467 202.523 56.544 200.048 58.208C197.616 59.8293 194.885 60.64 191.856 60.64Z" fill="black"/>
        <path d="M217.624 60H211.224V28.768H217.624V60ZM210.264 19.168C210.264 17.9307 210.627 16.928 211.352 16.16C212.12 15.3493 213.144 14.944 214.424 14.944C215.661 14.944 216.664 15.3493 217.432 16.16C218.2 16.928 218.584 17.9307 218.584 19.168C218.584 20.3627 218.2 21.3653 217.432 22.176C216.664 22.944 215.661 23.328 214.424 23.328C213.144 23.328 212.12 22.944 211.352 22.176C210.627 21.3653 210.264 20.3627 210.264 19.168Z" fill="black"/>
        <path d="M237.616 60.576C234.885 60.576 232.709 59.7867 231.088 58.208C229.509 56.5867 228.72 54.0907 228.72 50.72V29.152V28.768L229.936 21.728H235.12V50.848C235.12 52.0427 235.419 52.9387 236.016 53.536C236.656 54.1333 237.445 54.432 238.384 54.432C239.109 54.432 239.749 54.3893 240.304 54.304C240.859 54.2187 241.349 54.112 241.776 53.984V59.936C241.221 60.1067 240.603 60.256 239.92 60.384C239.28 60.512 238.512 60.576 237.616 60.576ZM223.92 34.656V28.768H241.776V34.656H223.92Z" fill="black"/>
        <path d="M262.472 60.64C259.443 60.64 256.776 59.9787 254.472 58.656C252.168 57.2907 250.376 55.392 249.096 52.96C247.816 50.528 247.176 47.6907 247.176 44.448C247.176 41.1627 247.816 38.304 249.096 35.872C250.376 33.44 252.168 31.5413 254.472 30.176C256.776 28.8107 259.443 28.128 262.472 28.128C265.544 28.128 268.232 28.8107 270.536 30.176C272.84 31.5413 274.632 33.44 275.912 35.872C277.192 38.304 277.832 41.1627 277.832 44.448C277.832 44.7467 277.811 45.0667 277.768 45.408C277.768 45.7067 277.747 45.984 277.704 46.24H253.256V40.736H273.096L271.304 44.448C271.304 41.2053 270.579 38.5387 269.128 36.448C267.677 34.3573 265.459 33.312 262.472 33.312C259.827 33.312 257.715 34.1653 256.136 35.872C254.557 37.536 253.768 39.7333 253.768 42.464V45.792C253.768 48.6507 254.536 50.9333 256.072 52.64C257.608 54.304 259.741 55.136 262.472 55.136C264.989 55.136 266.931 54.6027 268.296 53.536C269.661 52.4693 270.856 51.1467 271.88 49.568L276.68 52.576C275.229 55.264 273.352 57.2907 271.048 58.656C268.787 59.9787 265.928 60.64 262.472 60.64ZM261.896 24.352L258.696 21.024L268.424 12.064L271.688 15.328L261.896 24.352Z" fill="black"/>
    </g>
    <defs>
        <clipPath id="clip0_5_49">
            <rect width="280" height="77" fill="white"/>
        </clipPath>
    </defs>
</svg>
